<svg id="Слой_1" data-name="Слой 1" xmlns="http://www.w3.org/2000/svg" viewBox="0 0 300 300"><defs><style>.cls-1{fill:none;stroke-linecap:round;stroke-linejoin:round;}.cls-1,.cls-2{stroke:#000;stroke-width:1.52px;}.cls-2{stroke-miterlimit:10;}</style></defs><g id="EDITABLE_STROKE" data-name="EDITABLE STROKE"><path class="cls-1" d="M81.11,108.38q-.18,1.11-.33,2.22c-.53,3.85-.88,7.57-1.08,11.16"/><path class="cls-1" d="M92.11,76.8a102.94,102.94,0,0,0-7,16"/><path class="cls-1" d="M138.31,32.64a103.94,103.94,0,0,0-23,15.23"/><path class="cls-1" d="M82,148.59a104.09,104.09,0,0,0,133.28,76.78,104,104,0,0,1,0-198.18,104.61,104.61,0,0,0-61.66-.52"/><path class="cls-1" d="M106.59,196.06c-4-6.16-4.53-14.06-3.37-21.34s3.82-14.23,5.64-21.37a95,95,0,0,0,2.82-28.21"/><path class="cls-1" d="M84.85,159c-.27-1-.68-2.4-1.24-4a64.78,64.78,0,0,0-3.82-8.7c-3-5.47-7.08-7.69-9.68-10.3-3.62-3.63-7-10.53-5.36-25"/><path class="cls-1" d="M66,129.17c-.72-.58-8.5-7.09-7.74-17.67.7-9.8,8.16-15,9.1-15.69A33.83,33.83,0,0,1,66,129.17Z"/><path class="cls-1" d="M69,143.15c-.93.49-9.95,5.11-19.28.49a21.24,21.24,0,0,1-10.16-11.32,24.6,24.6,0,0,1,15-.57A25,25,0,0,1,69,143.15Z"/><path class="cls-1" d="M87.86,167c-1,.3-10.78,3-19-3.43a21.22,21.22,0,0,1-7.64-13.15A24.53,24.53,0,0,1,76.05,153,25,25,0,0,1,87.86,167Z"/><path class="cls-1" d="M81.57,148.59c-.72-.77-7.5-8.3-5.45-18.5a21.24,21.24,0,0,1,8.33-12.73,27.21,27.21,0,0,1,3.68,13.89A27.74,27.74,0,0,1,81.57,148.59Z"/><path class="cls-1" d="M120.09,208.56c-.85-.62-9-6.71-8.9-17.11a21.16,21.16,0,0,1,5.73-14.09,27.33,27.33,0,0,1,6.28,12.92A27.71,27.71,0,0,1,120.09,208.56Z"/><path class="cls-1" d="M110.81,138.1a29.72,29.72,0,0,1-5.45-18.5A29.21,29.21,0,0,1,110,105.43a22.51,22.51,0,0,1,.86,32.67Z"/><path class="cls-1" d="M52.3,138.1a75.33,75.33,0,0,1,22.17,8.33,73.82,73.82,0,0,1,7.83,5.13"/><path class="cls-1" d="M81.31,149.29c0-3.24.06-6.56.17-10,.08-2.47.19-4.91.32-7.29"/><path class="cls-1" d="M81.17,110.78c-.22-1.08-2.08-11,4.9-18.65a21.12,21.12,0,0,1,12.72-6.49,24.6,24.6,0,0,1-3,13.69A25.22,25.22,0,0,1,81.17,110.78Z"/><path class="cls-1" d="M80.43,105.94c-2.59-1.68-8.94-6.61-10-15.21a21.12,21.12,0,0,1,3.31-13.89A24.54,24.54,0,0,1,82.17,88a23.4,23.4,0,0,1,1.4,6.72"/><path class="cls-1" d="M81,110.52q2.31-3.8,4.85-7.72c1.35-2.07,2.7-4.1,4.05-6.07"/><path class="cls-1" d="M103.34,176.51c0-1-.07-11.18,8.25-17.43a21.25,21.25,0,0,1,14.69-4,27.22,27.22,0,0,1-6.5,12.82A27.72,27.72,0,0,1,103.34,176.51Z"/><path class="cls-1" d="M103.34,176.51c1.87-2.26,3.9-4.6,6.1-7,1.72-1.85,3.43-3.59,5.1-5.23"/><path class="cls-1" d="M74.31,159.53c2,.9,4.16,1.93,6.38,3.14,2.65,1.45,5,2.93,7.17,4.37"/><path class="cls-1" d="M116.77,45.86c-.52-.92-5.31-9.85-.87-19.27A21.21,21.21,0,0,1,127,16.22a24.53,24.53,0,0,1,.86,15A25,25,0,0,1,116.77,45.86Z"/><path class="cls-1" d="M121.08,31c-.42,2.17-1,4.49-1.65,6.92-.82,2.91-1.73,5.56-2.66,8"/><path class="cls-1" d="M106.28,195.65c-.91.54-9.68,5.62-19.23,1.5a21.22,21.22,0,0,1-10.74-10.78,24.6,24.6,0,0,1,15-1.35A25,25,0,0,1,106.28,195.65Z"/><path class="cls-1" d="M88.39,190.71a78.79,78.79,0,0,0,9.68,3.23,81.19,81.19,0,0,0,8.21,1.71"/><path class="cls-1" d="M133,217.62c-.73.76-7.87,8-18.17,6.47a21.2,21.2,0,0,1-13.17-7.6,24.48,24.48,0,0,1,14.08-5.21A25,25,0,0,1,133,217.62Z"/><path class="cls-1" d="M114.46,217.53a80.11,80.11,0,0,0,10.19.59,78,78,0,0,0,8.36-.5"/><path class="cls-1" d="M139.38,38c.72-.78,7.72-8.1,18.05-6.82a21.2,21.2,0,0,1,13.31,7.36,24.59,24.59,0,0,1-14,5.47A25,25,0,0,1,139.38,38Z"/><path class="cls-1" d="M155.43,38.69a56.5,56.5,0,0,0-7.6-.92,53.89,53.89,0,0,0-8.45.24"/><path class="cls-1" d="M138.53,32.53c0-.87.58-13.49,11.09-19.62a22.55,22.55,0,0,1,15-2.58,31.17,31.17,0,0,1-7.5,13A31.71,31.71,0,0,1,138.53,32.53Z"/><path class="cls-1" d="M152.74,20A31.36,31.36,0,0,0,139,32.3"/><path class="cls-1" d="M104.82,167c-.93-.51-9.73-5.53-11-15.86a21.25,21.25,0,0,1,3.91-14.7,24.5,24.5,0,0,1,8.7,12.24A25.08,25.08,0,0,1,104.82,167Z"/><path class="cls-1" d="M100.56,152.09c.79,2.06,1.57,4.31,2.28,6.74.85,2.89,1.49,5.63,2,8.16"/><path class="cls-1" d="M116.92,190.65a55.49,55.49,0,0,0,.84,9,56.11,56.11,0,0,0,2.33,8.87"/><path class="cls-1" d="M76.17,89.34a38.74,38.74,0,0,0,1.89,6.2,39.56,39.56,0,0,0,3.17,6.3"/><path class="cls-1" d="M91.42,78.78c.15-1.1,1.74-11.09,10.87-15.93A21.07,21.07,0,0,1,116.44,61,24.57,24.57,0,0,1,109,72.89,25.2,25.2,0,0,1,91.42,78.78Z"/><path class="cls-1" d="M92.34,74c-1.88-2.45-6.21-9.23-4.33-17.7a21.09,21.09,0,0,1,7.76-12A24.53,24.53,0,0,1,100,57.69a23.46,23.46,0,0,1-.94,6.79"/><path class="cls-1" d="M91.37,78.49q3.45-2.8,7.16-5.64c2-1.51,3.92-3,5.85-4.37"/><path class="cls-1" d="M93.89,56.91a41.25,41.25,0,0,0-.3,6.47,40.34,40.34,0,0,0,.88,7"/><path class="cls-1" d="M103.05,62.47c.23-.8,4-12.77,15.54-15.87a22,22,0,0,1,14.22,1.19,24.59,24.59,0,0,1-9.8,10c-1.11.61-2.4,1.15-2.4,1.15a33.68,33.68,0,0,1-5.48,1.8"/><path class="cls-1" d="M120.82,52.08a24.44,24.44,0,0,0-11.77,8.26"/><path class="cls-1" d="M124.39,40.76a37,37,0,0,1,17.94-2.67"/><path class="cls-1" d="M178.39,94.56c0,9.08-4.52,16.44-10.1,16.44h0c5.32-.11,10.1,7.36,10.1,16.44,0-9.08,4.52-16.44,10.1-16.44h0C182.91,111,178.39,103.64,178.39,94.56Z"/><path class="cls-1" d="M243.27,108.42c0,9.08-4.52,16.44-10.1,16.44h0c5.58,0,10.1,7.36,10.1,16.44,0-9.08,4.52-16.44,10.1-16.44h0C247.79,124.86,243.27,117.5,243.27,108.42Z"/><path class="cls-1" d="M218.18,147.58c0,11-5.5,20-12.28,20h0c6.78,0,12.28,9,12.28,20,0-11,5.5-20,12.28-20h0C223.68,167.57,218.18,158.62,218.18,147.58Z"/><path class="cls-1" d="M225.7,49.11c0,13.66-6.81,24.74-15.2,24.74h0c8.39,0,15.2,11.08,15.2,24.75,0-13.67,6.8-24.75,15.2-24.75h0C232.5,73.85,225.7,62.77,225.7,49.11Z"/></g><g id="EDITABLE_STROKE-2" data-name="EDITABLE STROKE"><line class="cls-2" x1="58.19" y1="232.22" x2="140.42" y2="232.22"/><line class="cls-2" x1="225.7" y1="232.22" x2="258.56" y2="232.22"/><line class="cls-2" x1="58.19" y1="269.22" x2="258.56" y2="269.22"/></g><circle cx="187.49" cy="70.54" r="2.28"/><circle cx="73.36" cy="54.19" r="2.28"/><circle cx="71.86" cy="27.06" r="2.28"/><circle cx="52.1" cy="71.95" r="2.28"/><circle cx="100.77" cy="30.03" r="2.28"/><circle cx="194.56" cy="191.15" r="2.28"/><circle cx="180.67" cy="157.3" r="2.28"/><circle cx="74.59" cy="215.25" r="2.28"/><circle cx="58.97" cy="175.61" r="2.28"/><circle cx="57.63" cy="199.6" r="2.28"/><circle cx="210.5" cy="122.6" r="2.28"/></svg>