<svg id="Слой_1" data-name="Слой 1" xmlns="http://www.w3.org/2000/svg" viewBox="0 0 300 300"><defs><style>.cls-1{fill:none;stroke:#000;stroke-linecap:round;stroke-linejoin:round;stroke-width:1.54px;}</style></defs><g id="EDITABLE_STROKE" data-name="EDITABLE STROKE"><path class="cls-1" d="M3.64,274.76V171.6C3.64,90.9,69.3,25.24,150,25.24S296.36,90.9,296.36,171.6V274.76Z"/><path class="cls-1" d="M150,36.78h0A134.82,134.82,0,0,1,284.82,171.6v91.62a0,0,0,0,1,0,0H15.18a0,0,0,0,1,0,0V171.6A134.82,134.82,0,0,1,150,36.78Z"/><path class="cls-1" d="M149.75,207.44s-31.32-124.7,0-124.7S149.75,207.44,149.75,207.44Z"/><path class="cls-1" d="M193.53,120.51c2-.69,14.93-5,22.2,1.73,0,0,4,3.69,4.7,11.11,2,21.46-62.14,68-70.68,74.09,8.51-16.65,15.91-29.79,20.92-38.43,5.69-9.82,27.42-46.86,24.49-63.49a15.24,15.24,0,0,0-4.27-8.69c-4.32-4.06-10.23-3.75-11.39-3.7-6,.28-13.4,8-15.83,10.68"/><path class="cls-1" d="M216.48,145.84c2.5-.31,7.38-.53,11.14,2.45,5.88,4.68,5,14,4.71,17.14-2.14,22.89-73.65,39.94-82.58,42,14.41,1.1,54.94,3.37,58.72-9.07.65-2.16.32-5.14-2.57-9.32"/><path class="cls-1" d="M106.47,120.51c-2-.69-14.93-5-22.2,1.73,0,0-4,3.69-4.7,11.11-2,21.46,62.14,68,70.68,74.09-8.51-16.65-15.91-29.79-20.92-38.43-5.69-9.82-27.42-46.86-24.49-63.49a15.24,15.24,0,0,1,4.27-8.69c4.32-4.06,10.23-3.75,11.39-3.7,6,.28,13.4,8,15.83,10.68"/><path class="cls-1" d="M83.52,145.84c-2.5-.31-7.38-.53-11.14,2.45-5.88,4.68-5,14-4.71,17.14,2.14,22.89,73.65,39.94,82.58,42-14.41,1.1-54.94,3.37-58.72-9.07-.65-2.16-.32-5.14,2.57-9.32"/><line class="cls-1" x1="106.17" y1="217" x2="196.78" y2="217"/></g><polygon points="65.76 191.21 64.51 201.09 65.76 210.98 67 201.09 65.76 191.21"/><polygon points="75.64 201.09 65.76 199.85 55.87 201.09 65.76 202.34 75.64 201.09"/><circle cx="65.76" cy="201.1" r="2.64"/><polygon points="239.94 188.57 238.7 198.46 239.94 208.34 241.18 198.46 239.94 188.57"/><polygon points="249.83 198.46 239.94 197.21 230.05 198.46 239.94 199.7 249.83 198.46"/><circle cx="239.94" cy="198.45" r="2.64"/><polygon points="251.07 122.77 249.83 132.66 251.07 142.55 252.31 132.66 251.07 122.77"/><polygon points="260.96 132.66 251.07 131.42 241.18 132.66 251.07 133.9 260.96 132.66"/><circle cx="251.07" cy="132.66" r="2.64"/><polygon points="120.68 54.3 119.44 64.19 120.68 74.08 121.93 64.19 120.68 54.3"/><polygon points="130.57 64.19 120.68 62.95 110.8 64.19 120.68 65.44 130.57 64.19"/><circle cx="120.68" cy="64.19" r="2.64"/><polygon points="54.2 111.82 52.54 125.06 54.2 138.31 55.87 125.06 54.2 111.82"/><polygon points="67.45 125.06 54.2 123.4 40.96 125.06 54.2 126.73 67.45 125.06"/><circle cx="54.2" cy="125.06" r="3.54"/><polygon points="213.27 70.15 211.61 83.4 213.27 96.64 214.94 83.4 213.27 70.15"/><polygon points="226.51 83.4 213.27 81.73 200.03 83.4 213.27 85.06 226.51 83.4"/><circle cx="213.27" cy="83.4" r="3.54"/><circle cx="263" cy="164.28" r="2.31"/><circle cx="272.03" cy="199.27" r="2.31"/><circle cx="232.4" cy="119.19" r="2.31"/><circle cx="246.62" cy="94.7" r="2.31"/><circle cx="145.25" cy="47.63" r="2.31"/><circle cx="176.91" cy="77.82" r="2.31"/><circle cx="181.37" cy="56.97" r="2.31"/><circle cx="101.46" cy="78.71" r="2.31"/><circle cx="75.31" cy="71.77" r="2.31"/><circle cx="73.67" cy="105.78" r="2.31"/><circle cx="51.42" cy="92.41" r="2.31"/><circle cx="56.83" cy="157.08" r="2.31"/><circle cx="30.95" cy="154.42" r="2.31"/><circle cx="29.95" cy="198.08" r="2.31"/><circle cx="49" cy="181.59" r="2.31"/></svg>