<svg id="Слой_1" data-name="Слой 1" xmlns="http://www.w3.org/2000/svg" viewBox="0 0 300 300"><defs><style>.cls-1,.cls-2{fill:none;stroke:#000;stroke-width:1.56px;}.cls-1{stroke-miterlimit:10;}.cls-2{stroke-linecap:round;stroke-linejoin:round;}</style></defs><g id="EDITABLE_STROKE" data-name="EDITABLE STROKE"><path class="cls-1" d="M150,7.26h0a137,137,0,0,1,137,137v89.32a0,0,0,0,1,0,0H13a0,0,0,0,1,0,0V144.24A137,137,0,0,1,150,7.26Z"/><path class="cls-1" d="M22.86,223.73V144.24a127.14,127.14,0,0,1,254.28,0v79.49Z"/><path class="cls-2" d="M150,73.4a37.39,37.39,0,0,1-35.46-25.16,37.56,37.56,0,1,0,70.92,0A37.58,37.58,0,0,1,150,73.4Z"/></g><g id="EDITABLE_STROKE-2" data-name="EDITABLE STROKE"><path class="cls-2" d="M187.91,215.88c-.08-14.06-5.72-20-7.84-22-8.43-7.67-23.33-7.61-35.7-7.55-2.87,0-5.74-.24-8.61-.18-3.65.09-5.08.33-7.22-.5a14.66,14.66,0,0,1-4.92-3.42,17.54,17.54,0,0,1-2.76-3.64,34.48,34.48,0,0,1-7.34-1.11,33.61,33.61,0,0,1-4.15-1.38l-5.9-8a62.59,62.59,0,0,1-6.82-2.09,34,34,0,0,1-7.57-3.5c-3-2.06-4.09-4.13-6.79-7.91-1.24-1.73,0,.15-9.28-11.06C62.55,131,61.79,129.57,62.3,128.8c1.1-1.62,7.26.52,11,2.45a28.65,28.65,0,0,1,10.82,10.13,25.47,25.47,0,0,1,15,13.5"/><path class="cls-2" d="M120.86,178.63a51,51,0,0,0,7.37.23c9-.38,9.81-2.87,16.84-2.72,4.37.1,6.11,1.1,12.86,1,1.87,0,3.41-.14,4.43-.23"/><path class="cls-2" d="M102.13,167.8a45.73,45.73,0,0,1,14.54-5.24c11.23-1.95,13.88,2.14,22.56-.89,2.17-.76,7-2.75,15.62-5.63l.63-.2c6.39-2.1,16.25-5.34,24.4-4.34,9.17,1.13,15.42,7.54,19,11.18,5.63,5.77,6.81,9.58,13.36,20.32a214.87,214.87,0,0,0,14.36,20.68"/><path class="cls-2" d="M129.25,166.93a10.39,10.39,0,0,0,1.51,7.77"/><path class="cls-2" d="M134.12,166a16.14,16.14,0,0,1,1.44,8.55"/><path class="cls-2" d="M97.56,152.05A51,51,0,0,1,110,155.81a50.35,50.35,0,0,1,10.44,6.29"/><path class="cls-2" d="M98.31,152c0-7.38.16-13.66.35-18.55.23-5.59.44-8.14,1.56-11.41,1.38-4,3.32-6.77,5.74-10.16,3.16-4.45,4.75-6.67,6.23-6.36,2.27.47,3.22,6.52,2.67,11a20.75,20.75,0,0,1-5.25,11.22,23.77,23.77,0,0,1,0,17.15"/><path class="cls-2" d="M110.22,143.13a55,55,0,0,1,7,6.63,55.83,55.83,0,0,1,7.22,10.32"/><path class="cls-2" d="M123.76,158.88a31.27,31.27,0,0,1,4.63-1.67,32.44,32.44,0,0,1,10.55-1.09"/><path class="cls-2" d="M122.41,148a14.82,14.82,0,0,0,4.19-14.66"/><path class="cls-2" d="M123.76,146.53a22.85,22.85,0,0,1,4.12,4,23.23,23.23,0,0,1,3.47,6"/><path class="cls-2" d="M112.49,145c1.73-3.26,3.08-5.9,4-7.74,1.13-2.24,2.36-4.42,3.52-6.63a17.65,17.65,0,0,1,2.13-3.44A15.45,15.45,0,0,1,126,124a19.17,19.17,0,0,1,6.44-2.54l7.92-2.83a8.42,8.42,0,0,1,.66,3.57c-.25,5.17-5.85,10-13.9,12.3"/><line class="cls-2" x1="84.07" y1="141.38" x2="82.44" y2="143.13"/><path class="cls-2" d="M98.92,128.43a7.28,7.28,0,0,0,3.11.22"/><path class="cls-2" d="M99.42,124.9l1.8.56"/><path class="cls-2" d="M130.84,155.33a30.56,30.56,0,0,0,.09-4.09c-.13-2.69-.55-3.61-.08-4.84s1.24-1.48,3.86-3.1c5.95-3.68,6.5-4.86,9.12-5.11a21.42,21.42,0,0,1,3.69.1,29.07,29.07,0,0,1,4.07.68l7.22,3.18a3.06,3.06,0,0,1-.25,1.43c-1.22,2.62-6.76,3.19-13.74,1.79"/><path class="cls-2" d="M140.61,151.43c.41-.21.82-.44,1.24-.7a14.84,14.84,0,0,0,4.8-5"/><path class="cls-2" d="M147.8,158.48A22.31,22.31,0,0,0,145,154a22,22,0,0,0-3.14-3.22"/></g><path d="M100.63,168.67a6.85,6.85,0,0,1,3.21-1.35,27.39,27.39,0,0,1,6.5-.54,13,13,0,0,1,3.79.3,5.3,5.3,0,0,1,3.09,2.08,4.8,4.8,0,0,1,0,4.86,7.29,7.29,0,0,1-3.91,3.11,15.48,15.48,0,0,1-5,.76c-2.81,0-4.85,0-6.75-1.34-.53-.38-2.75-2-2.69-4.41A5,5,0,0,1,100.63,168.67Z"/><path d="M132.74,120.44a3.48,3.48,0,0,1,1-.73,17.41,17.41,0,0,1,5.43-2,1.45,1.45,0,0,1,1.21.16,1,1,0,0,1,.16,1.17,2.64,2.64,0,0,1-.88.91,13.71,13.71,0,0,1-5.64,2.37c-.41.08-.93.22-1.28-.09A1.29,1.29,0,0,1,132.74,120.44Z"/><path d="M150.91,139.16c.09-.24.39-.35.64-.41a7.33,7.33,0,0,1,3.4.32,18.54,18.54,0,0,1,3,1.17,2.82,2.82,0,0,1,.8.6,1.14,1.14,0,0,1,.37.61,1,1,0,0,1-.39.88,1.86,1.86,0,0,1-.94.32,6.38,6.38,0,0,1-2.7-.56c-1.38-.51-1.9-.71-2.22-.86a3.92,3.92,0,0,1-1.68-1.27C150.83,139.49,150.87,139.26,150.91,139.16Z"/><polygon points="196.14 108.05 193.96 125.46 196.14 142.87 198.33 125.46 196.14 108.05"/><polygon points="213.56 125.46 196.14 123.27 178.73 125.46 196.14 127.65 213.56 125.46"/><polygon points="188.14 117.46 195.14 126.47 204.15 133.46 197.15 124.45 188.14 117.46"/><polygon points="204.15 117.46 195.14 124.45 188.14 133.46 197.15 126.47 204.15 117.46"/><polygon points="149.08 28.03 147.45 40.99 149.08 53.95 150.71 40.99 149.08 28.03"/><polygon points="162.04 40.99 149.08 39.36 136.13 40.99 149.08 42.62 162.04 40.99"/><polygon points="143.13 35.04 148.33 41.74 155.04 46.95 149.83 40.24 143.13 35.04"/><polygon points="155.04 35.04 148.33 40.24 143.13 46.95 149.83 41.74 155.04 35.04"/><polygon points="247.81 115.8 246.18 128.76 247.81 141.71 249.44 128.76 247.81 115.8"/><polygon points="260.77 128.76 247.81 127.13 234.85 128.76 247.81 130.38 260.77 128.76"/><polygon points="241.85 122.8 247.06 129.5 253.76 134.71 248.56 128.01 241.85 122.8"/><polygon points="253.76 122.8 247.06 128.01 241.85 134.71 248.56 129.5 253.76 122.8"/><polygon points="83.26 184.86 81.63 197.82 83.26 210.77 84.89 197.82 83.26 184.86"/><polygon points="96.22 197.82 83.26 196.19 70.3 197.82 83.26 199.44 96.22 197.82"/><polygon points="77.3 191.86 82.51 198.56 89.21 203.77 84.01 197.07 77.3 191.86"/><polygon points="89.21 191.86 82.51 197.07 77.3 203.77 84.01 198.56 89.21 191.86"/><polygon points="229.48 56.41 227.85 69.37 229.48 82.32 231.11 69.37 229.48 56.41"/><polygon points="242.44 69.37 229.48 67.74 216.53 69.37 229.48 71 242.44 69.37"/><polygon points="223.53 63.41 228.73 70.11 235.44 75.32 230.23 68.62 223.53 63.41"/><polygon points="235.44 63.41 228.73 68.62 223.53 75.32 230.23 70.11 235.44 63.41"/><polygon points="55.19 147.79 53.02 165.01 55.19 182.22 57.35 165.01 55.19 147.79"/><polygon points="72.4 165.01 55.19 162.84 37.97 165.01 55.19 167.17 72.4 165.01"/><polygon points="47.27 157.09 54.19 166 63.1 172.92 56.18 164.01 47.27 157.09"/><polygon points="63.1 157.09 54.19 164.01 47.27 172.92 56.18 166 63.1 157.09"/><polygon points="78.36 75.32 76.73 88.28 78.36 101.23 79.98 88.28 78.36 75.32"/><polygon points="91.31 88.28 78.36 86.65 65.4 88.28 78.36 89.91 91.31 88.28"/><polygon points="72.4 82.32 77.61 89.03 84.31 94.23 79.1 87.53 72.4 82.32"/><polygon points="84.31 82.32 77.61 87.53 72.4 94.23 79.1 89.03 84.31 82.32"/><polygon points="259.14 178.91 257.51 191.86 259.14 204.82 260.77 191.86 259.14 178.91"/><polygon points="272.09 191.86 259.14 190.23 246.18 191.86 259.14 193.49 272.09 191.86"/><polygon points="253.18 185.91 258.39 192.61 265.09 197.82 259.89 191.11 253.18 185.91"/><polygon points="265.09 185.91 258.39 191.11 253.18 197.82 259.89 192.61 265.09 185.91"/><circle cx="132.55" cy="202.64" r="1.97"/><circle cx="45.93" cy="201.09" r="1.97"/><circle cx="47.17" cy="104.86" r="1.97"/><circle cx="65.4" cy="70.78" r="1.97"/><circle cx="165.21" cy="122.46" r="1.97"/><circle cx="223.53" cy="100.18" r="1.97"/><circle cx="196.14" cy="88.9" r="1.97"/><circle cx="93.43" cy="58.37" r="1.97"/><circle cx="183.3" cy="38.3" r="1.97"/><circle cx="113.58" cy="35.65" r="1.97"/><circle cx="228.05" cy="168.18" r="1.97"/><circle cx="246.97" cy="86.96" r="1.97"/><circle cx="266.16" cy="163.52" r="1.97"/><circle cx="246.07" cy="206.1" r="1.97"/><circle cx="163.82" cy="206.4" r="1.97"/><circle cx="98.98" cy="213.48" r="1.97"/><circle cx="78.12" cy="116.23" r="1.97"/><circle cx="39.17" cy="132.9" r="1.97"/><circle cx="226.57" cy="141.71" r="1.97"/><circle cx="207.24" cy="57.11" r="1.97"/><circle cx="107.45" cy="93.01" r="1.97"/><circle cx="141.85" cy="107.47" r="1.97"/></svg>