<svg id="Слой_1" data-name="Слой 1" xmlns="http://www.w3.org/2000/svg" viewBox="0 0 300 300"><defs><style>.cls-1,.cls-2{fill:none;stroke:#000;stroke-linecap:round;stroke-linejoin:round;}.cls-1{stroke-width:1.68px;}.cls-2{stroke-width:1.64px;}</style></defs><path id="EDITABLE_STROKE" data-name="EDITABLE STROKE" class="cls-1" d="M150.42,7.16h0a144,144,0,0,1,144,144V249a0,0,0,0,1,0,0H6.41a0,0,0,0,1,0,0V151.17A144,144,0,0,1,150.42,7.16Z"/><g id="EDITABLE_STROKE-2" data-name="EDITABLE STROKE"><path class="cls-2" d="M149.14,230.49A105.66,105.66,0,0,1,131,229.23c-3-.47-5.74-1-8.33-1.66a6.76,6.76,0,0,1-5.16-7.35c.62-5.42.43-13.42-4.62-19a11,11,0,0,0-4.72-3.56c-6.23-2.12-10.61,4.44-19.72,3.56a17.46,17.46,0,0,1-6.64-2,19.45,19.45,0,0,1-8.43-9.87,24,24,0,0,1,0-18.46c4.58-10.59,14.84-10.82,17.48-20.66a18.78,18.78,0,0,0-.42-10.39"/><path class="cls-2" d="M207.87,139.86a18.79,18.79,0,0,0-.41,10.39c2.64,9.84,12.9,10.07,17.48,20.66a24,24,0,0,1,0,18.46,19.5,19.5,0,0,1-8.43,9.87,17.6,17.6,0,0,1-6.64,2c-9.11.88-13.5-5.68-19.72-3.56a11,11,0,0,0-4.72,3.56c-5.05,5.58-5.24,13.58-4.62,19a6.77,6.77,0,0,1-5.17,7.35c-2.59.63-5.37,1.19-8.32,1.66a105.72,105.72,0,0,1-18.18,1.26V215.8"/><path class="cls-2" d="M228.3,102.75a77.75,77.75,0,0,1-11.71,58.4"/><path class="cls-2" d="M72.84,110.35A77.06,77.06,0,0,1,86.48,76.09c21.33-29.66,55.87-31.92,61-32.16,3.72-.19,50.57-1.64,72.72,37.2.39.67.76,1.35,1.12,2"/><path class="cls-2" d="M81.68,161.15a85.72,85.72,0,0,1-9.53-43.71"/><line class="cls-2" x1="127.22" y1="213.49" x2="127.22" y2="228.57"/><line class="cls-2" x1="138.72" y1="215.03" x2="138.72" y2="230.11"/><line class="cls-2" x1="172.35" y1="213.14" x2="172.35" y2="228.22"/><line class="cls-2" x1="160.85" y1="214.68" x2="160.85" y2="229.76"/><path class="cls-2" d="M179.72,79.52l.71-.07c19.55-1.86,40.78,3.22,53.91,17.82"/><path class="cls-2" d="M79.87,86.41C74,88.05,68.08,89.9,63.56,93.9c-4.72,4.19-7.33,11.48-4.23,17,2.5,4.45,8,6.49,13.12,6.29s9.93-2.24,14.62-4.26l37.36-16c12.25-5.26,24.66-10.56,37.48-14"/><path class="cls-2" d="M212.34,83c11.31-1.12,21.8,3.18,27,11.42A23.83,23.83,0,0,1,242.85,107a34.14,34.14,0,0,1-30.51-24Z"/><path class="cls-2" d="M162,82.85a37.68,37.68,0,0,1,12-14.31c12.31-8.8,25.94-6.91,29.05-6.4A53.05,53.05,0,0,1,189.2,74.73,54.19,54.19,0,0,1,162,82.85Z"/><path class="cls-2" d="M174,81.2l3-.86a47.4,47.4,0,0,1,35.32,19.35A36.91,36.91,0,0,1,174,81.2Z"/><line class="cls-2" x1="195.71" y1="92.66" x2="175.26" y2="80.84"/><line class="cls-2" x1="184.73" y1="70.57" x2="162.04" y2="82.85"/><path class="cls-2" d="M117,99.79a37.7,37.7,0,0,1,7.16-17.22c9.15-12.06,22.72-14.3,25.85-14.74A53.36,53.36,0,0,1,140.5,84,54.11,54.11,0,0,1,117,99.79Z"/><path class="cls-2" d="M127.9,94.66l2.64-1.72a47.32,47.32,0,0,1,39.47,8,37.57,37.57,0,0,1-23.41,3.33A37.17,37.17,0,0,1,127.9,94.66Z"/><line class="cls-2" x1="152.04" y1="99.16" x2="129" y2="93.94"/><line class="cls-2" x1="135" y1="81.32" x2="116.98" y2="99.79"/><path class="cls-2" d="M69.5,116.87a37.78,37.78,0,0,1,11.18-14.94c11.82-9.45,25.53-8.3,28.66-8A53.09,53.09,0,0,1,96.2,107.29,54.25,54.25,0,0,1,69.5,116.87Z"/><path class="cls-2" d="M79.44,116.51l2.64-1.72a47.32,47.32,0,0,1,39.47,8,36.91,36.91,0,0,1-42.11-6.27Z"/><line class="cls-2" x1="103.58" y1="121.01" x2="80.54" y2="115.79"/><line class="cls-2" x1="91.5" y1="103.37" x2="69.5" y2="116.87"/></g><path d="M160.6,152.14a13,13,0,0,1-.53-7.36,10.24,10.24,0,0,1,4.4-5.63,17.81,17.81,0,0,1,6.85-2.4,28.4,28.4,0,0,1,30.43,16.66c1.06,2.44,2.32,5.5,1.68,9.41a14.67,14.67,0,0,1-4.05,7.77,17.21,17.21,0,0,1-7.29,4.25c-11.59,3.11-23.88-9.8-27.69-15A27.57,27.57,0,0,1,160.6,152.14Z"/><path d="M139.87,152.14a13,13,0,0,0,.52-7.36,10.2,10.2,0,0,0-4.4-5.63,17.82,17.82,0,0,0-6.84-2.4,28.38,28.38,0,0,0-30.43,16.66c-1.07,2.44-2.33,5.5-1.68,9.41a14.6,14.6,0,0,0,4,7.77,17.21,17.21,0,0,0,7.29,4.25c11.59,3.11,23.88-9.8,27.69-15A27.86,27.86,0,0,0,139.87,152.14Z"/><path d="M155.88,175.18c-.76-3.48.19-5.24-1.53-7.53l0-.05a4.31,4.31,0,0,0-6.79,0l0,.05c-1.71,2.29-.77,4-1.53,7.53-1.29,5.94-5.53,7.78-4.39,11a3.4,3.4,0,0,0,1.69,2c1.93.82,5-.95,7.66-4.65,2.63,3.7,5.73,5.47,7.66,4.65a3.4,3.4,0,0,0,1.69-2C161.41,183,157.17,181.12,155.88,175.18Z"/><polygon points="260.38 126.72 257.58 149.05 260.38 171.37 263.19 149.05 260.38 126.72"/><polygon points="282.71 149.05 260.38 146.24 238.06 149.05 260.38 151.86 282.71 149.05"/><polygon points="250.12 138.79 259.1 150.34 270.65 159.31 261.68 147.76 250.12 138.79"/><polygon points="270.65 138.79 259.1 147.76 250.12 159.31 261.68 150.34 270.65 138.79"/><polygon points="41.68 130.6 39.05 151.56 41.68 172.51 44.32 151.56 41.68 130.6"/><polygon points="62.64 151.56 41.68 148.92 20.73 151.56 41.68 154.19 62.64 151.56"/><polygon points="32.05 141.92 40.47 152.76 51.31 161.19 42.89 150.34 32.05 141.92"/><polygon points="51.31 141.92 40.47 150.34 32.05 161.19 42.89 152.76 51.31 141.92"/><polygon points="239.45 203.5 237.49 219.06 239.45 234.62 241.4 219.06 239.45 203.5"/><polygon points="255 219.06 239.45 217.1 223.89 219.06 239.45 221.01 255 219.06"/><polygon points="232.3 211.91 238.55 219.96 246.6 226.21 240.34 218.16 232.3 211.91"/><polygon points="246.6 211.91 238.55 218.16 232.3 226.21 240.34 219.96 246.6 211.91"/><polygon points="57.24 203.5 55.28 219.06 57.24 234.62 59.19 219.06 57.24 203.5"/><polygon points="72.8 219.06 57.24 217.1 41.68 219.06 57.24 221.01 72.8 219.06"/><polygon points="50.09 211.91 56.34 219.96 64.39 226.21 58.14 218.16 50.09 211.91"/><polygon points="64.39 211.91 56.34 218.16 50.09 226.21 58.14 219.96 64.39 211.91"/><polygon points="228.74 48.94 227.33 60.2 228.74 71.46 230.16 60.2 228.74 48.94"/><polygon points="240 60.2 228.74 58.78 217.49 60.2 228.74 61.62 240 60.2"/><polygon points="223.57 55.03 228.09 60.85 233.92 65.37 229.39 59.55 223.57 55.03"/><polygon points="233.92 55.03 228.09 59.55 223.57 65.37 229.39 60.85 233.92 55.03"/><polygon points="73.89 52.44 72.48 63.69 73.89 74.95 75.31 63.69 73.89 52.44"/><polygon points="85.15 63.69 73.89 62.28 62.64 63.69 73.89 65.11 85.15 63.69"/><polygon points="68.72 58.52 73.24 64.34 79.07 68.87 74.54 63.04 68.72 58.52"/><polygon points="79.07 58.52 73.24 63.04 68.72 68.87 74.54 64.34 79.07 58.52"/><polygon points="141.38 15.1 139.96 26.35 141.38 37.61 142.79 26.35 141.38 15.1"/><polygon points="152.63 26.35 141.38 24.94 130.12 26.35 141.38 27.77 152.63 26.35"/><polygon points="136.2 21.18 140.72 27 146.55 31.53 142.03 25.7 136.2 21.18"/><polygon points="146.55 21.18 140.72 25.7 136.2 31.53 142.03 27 146.55 21.18"/><circle cx="200.64" cy="224.46" r="2.46"/><circle cx="274.49" cy="197.92" r="2.46"/><circle cx="279.58" cy="231.8" r="2.46"/><circle cx="254.88" cy="81.88" r="2.46"/><circle cx="273.99" cy="118.71" r="2.46"/><circle cx="244.04" cy="129.87" r="2.46"/><circle cx="171.44" cy="30.17" r="2.46"/><circle cx="207.03" cy="30.08" r="2.46"/><circle cx="110.93" cy="26.96" r="2.46"/><circle cx="94.49" cy="47.65" r="2.46"/><circle cx="44.91" cy="74.11" r="2.46"/><circle cx="28.98" cy="110.76" r="2.46"/><circle cx="53.88" cy="127.61" r="2.46"/><circle cx="62.04" cy="172.02" r="2.46"/><circle cx="24.2" cy="195.02" r="2.46"/><circle cx="84.24" cy="211.72" r="2.46"/><circle cx="107.03" cy="232.64" r="2.46"/><circle cx="20.77" cy="237.64" r="2.46"/></svg>