<svg id="Слой_1" data-name="Слой 1" xmlns="http://www.w3.org/2000/svg" viewBox="0 0 300 300"><defs><style>.cls-1{fill:none;stroke:#000;stroke-linecap:round;stroke-linejoin:round;stroke-width:1.61px;}</style></defs><g id="EDITABLE_STROKE" data-name="EDITABLE STROKE"><path class="cls-1" d="M241.73,62.18a141,141,0,0,1,49.61,107.53v92.17H8.66V169.71A141,141,0,0,1,58.27,62.18"/><path class="cls-1" d="M24.79,223.53V169.71a125.21,125.21,0,1,1,250.42,0v53.82"/></g><g id="EDITABLE_STROKE-2" data-name="EDITABLE STROKE"><path class="cls-1" d="M158.26,97.29a17.1,17.1,0,0,0-5.89-10.7,4.14,4.14,0,0,0-5.51,0A17.05,17.05,0,0,0,141,97.29c-.48,4.19.52,11.14,5.14,13.38a8.87,8.87,0,0,0,7,0C157.74,108.43,158.74,101.48,158.26,97.29Z"/><path class="cls-1" d="M136.75,62.18a30.58,30.58,0,0,1,11.53,23.59"/><path class="cls-1" d="M145.15,110.1a120.83,120.83,0,0,0,5.25,79.39"/><path class="cls-1" d="M140.87,99.58c-37.24,9.94-57.61,28.8-67.13,39.4-13.88,15.46-32.26,44.09-24.09,54.35,4.06,5.1,13.33,4,19.63,3.11,35.52-4.82,60.54-34.89,71.58-50.28"/><path class="cls-1" d="M74.77,137.85a39.29,39.29,0,0,0,34.58,18.86c19.79-.63,30.48-16.39,31.44-17.87"/><path class="cls-1" d="M81.08,145.71a112.6,112.6,0,0,1,61.16-39.37"/><path class="cls-1" d="M92.31,153.32a104,104,0,0,1,51.28-36.87"/><path class="cls-1" d="M108.4,156.73a70.7,70.7,0,0,1,33.14-27.87"/><path class="cls-1" d="M83.87,192.93c-.08,1.23-.77,14.51,7.17,18.93,4.35,2.43,9.27,1.07,11.53.45,19.67-5.44,37.25-42.86,40.09-49"/><path class="cls-1" d="M86.22,206.57a64.17,64.17,0,0,0,19.36-24.75"/><path class="cls-1" d="M95.9,213.23a125.39,125.39,0,0,0,20.87-25.8,125.23,125.23,0,0,0,12.47-27.36,8,8,0,0,0-4.35.55c-1.34.69-2.55,1.63-4,2.19-3.9,1.57-8.69,0-12.3,2.12C104,167.65,104,174.77,99.7,178c-3,2.28-7.19,1.93-10.87,2.79-3.94.92-8.58,5-12.5,14.35"/><path class="cls-1" d="M163.25,62.18a30.58,30.58,0,0,0-11.53,23.59"/><path class="cls-1" d="M154.85,110.1a127.22,127.22,0,0,1,4.36,32.31,128,128,0,0,1-8.81,47.08"/><path class="cls-1" d="M159.13,99.58c37.24,9.94,57.61,28.8,67.13,39.4,13.88,15.46,32.26,44.09,24.09,54.35-4.06,5.1-13.33,4-19.63,3.11-35.52-4.82-60.54-34.89-71.58-50.28"/><path class="cls-1" d="M225.23,137.85a39.29,39.29,0,0,1-34.58,18.86c-19.79-.63-30.48-16.39-31.44-17.87"/><path class="cls-1" d="M218.92,145.71a112.6,112.6,0,0,0-61.16-39.37"/><path class="cls-1" d="M207.69,153.32a104,104,0,0,0-51.28-36.87"/><path class="cls-1" d="M191.6,156.73a70.7,70.7,0,0,0-33.14-27.87"/><path class="cls-1" d="M216.13,192.93c.08,1.23.77,14.51-7.17,18.93-4.36,2.44-9.3,1.06-11.53.45-19.76-5.49-37.11-42.55-39.92-48.67"/><path class="cls-1" d="M213.78,206.57a64.17,64.17,0,0,1-19.36-24.75"/><path class="cls-1" d="M204.1,213.23a125.58,125.58,0,0,1-33.34-53.16,8,8,0,0,1,4.35.55c1.34.69,2.55,1.63,3.95,2.19,3.9,1.57,8.69,0,12.3,2.12,4.61,2.72,4.66,9.84,8.94,13.07,3,2.28,7.19,1.93,10.87,2.79,3.94.92,8.58,5,12.5,14.35"/><path class="cls-1" d="M143,120.79a2.1,2.1,0,0,0,3,1.41c.4-.19.37-.33,1.35-1.14a4.45,4.45,0,0,1,.94-.66,2.68,2.68,0,0,1,1.65-.06c1.49.38,1.46,1.48,2.86,2a3.59,3.59,0,0,0,2.72-.13,3.64,3.64,0,0,0,1.72-2"/><path class="cls-1" d="M141.27,130.85a47.86,47.86,0,0,0,17,.49"/><path class="cls-1" d="M141.05,135.88a34.72,34.72,0,0,0,17.41.76"/><path class="cls-1" d="M141.34,148.63a1.72,1.72,0,0,0,1.9,1.1,5.48,5.48,0,0,0,2.17-1,4.39,4.39,0,0,1,2.21-.86,4.83,4.83,0,0,1,2.43.93,4.14,4.14,0,0,0,2.46.81,10.94,10.94,0,0,0,2.2-.84,3.68,3.68,0,0,1,4,1.2"/><path class="cls-1" d="M142.39,161a27.05,27.05,0,0,0,15.36-.53"/><path class="cls-1" d="M143.89,167.59a39.4,39.4,0,0,0,7.81.63,12.21,12.21,0,0,0,5-.88"/><path class="cls-1" d="M146.48,178.19a2.15,2.15,0,0,1,1.32-1,2.18,2.18,0,0,1,1.62.25,4.22,4.22,0,0,0,1.05.64,1.9,1.9,0,0,0,1.23-.19c.72-.3.83-.39,1.19-.4a1.81,1.81,0,0,1,1.33.67"/></g><path d="M70.76,172a11,11,0,0,1-2.25-13A11,11,0,1,0,82,176.17a10.66,10.66,0,0,0,1.83-2.6A11,11,0,0,1,70.76,172Z"/><circle cx="79.35" cy="162.61" r="3.55"/><path d="M234,161a11.08,11.08,0,0,0-2.5-2,11,11,0,0,1-15.31,14.5,10.66,10.66,0,0,0,1.83,2.6A11,11,0,1,0,234,161Z"/><path d="M220.65,166.16a3.55,3.55,0,1,0-3.55-3.55A3.55,3.55,0,0,0,220.65,166.16Z"/><polygon points="196.15 72.69 194.51 85.77 196.15 98.84 197.8 85.77 196.15 72.69"/><polygon points="209.23 85.77 196.15 84.12 183.07 85.77 196.15 87.41 209.23 85.77"/><polygon points="190.14 79.75 195.4 86.52 202.16 91.78 196.91 85.01 190.14 79.75"/><polygon points="202.16 79.75 195.4 85.01 190.14 91.78 196.91 86.52 202.16 79.75"/><polygon points="90.67 76.94 89.03 90.02 90.67 103.1 92.31 90.02 90.67 76.94"/><polygon points="103.75 90.02 90.67 88.38 77.59 90.02 90.67 91.66 103.75 90.02"/><polygon points="84.66 84.01 89.91 90.78 96.68 96.03 91.42 89.26 84.66 84.01"/><polygon points="96.68 84.01 89.91 89.26 84.66 96.03 91.42 90.78 96.68 84.01"/><polygon points="161.36 193.49 159.71 206.57 161.36 219.65 163 206.57 161.36 193.49"/><polygon points="174.44 206.57 161.36 204.92 148.28 206.57 161.36 208.21 174.44 206.57"/><polygon points="155.35 200.55 160.6 207.32 167.37 212.58 162.11 205.81 155.35 200.55"/><polygon points="167.37 200.55 160.6 205.81 155.35 212.58 162.11 207.32 167.37 200.55"/><polygon points="247.2 124.02 246.27 131.45 247.2 138.87 248.13 131.45 247.2 124.02"/><polygon points="254.63 131.45 247.2 130.51 239.78 131.45 247.2 132.38 254.63 131.45"/><polygon points="243.79 128.03 246.77 131.88 250.61 134.86 247.63 131.02 243.79 128.03"/><polygon points="250.61 128.03 246.77 131.02 243.79 134.86 247.63 131.88 250.61 128.03"/><polygon points="47.65 134.02 46.72 141.44 47.65 148.86 48.58 141.44 47.65 134.02"/><polygon points="55.07 141.44 47.65 140.5 40.23 141.44 47.65 142.37 55.07 141.44"/><polygon points="44.24 138.03 47.22 141.87 51.06 144.85 48.08 141.01 44.24 138.03"/><polygon points="51.06 138.03 47.22 141.01 44.24 144.85 48.08 141.87 51.06 138.03"/><polygon points="58.27 204.2 57.34 211.62 58.27 219.04 59.2 211.62 58.27 204.2"/><polygon points="65.69 211.62 58.27 210.69 50.84 211.62 58.27 212.56 65.69 211.62"/><polygon points="54.86 208.21 57.84 212.05 61.68 215.03 58.7 211.19 54.86 208.21"/><polygon points="61.68 208.21 57.84 211.19 54.86 215.03 58.7 212.05 61.68 208.21"/><polygon points="239.78 203.27 238.85 210.69 239.78 218.11 240.71 210.69 239.78 203.27"/><polygon points="247.2 210.69 239.78 209.76 232.36 210.69 239.78 211.62 247.2 210.69"/><polygon points="236.37 207.28 239.35 211.12 243.19 214.1 240.21 210.26 236.37 207.28"/><polygon points="243.19 207.28 239.35 210.26 236.37 214.1 240.21 211.12 243.19 207.28"/><circle cx="138.33" cy="198.72" r="2.42"/><circle cx="127.39" cy="216.68" r="2.42"/><circle cx="36.23" cy="208.21" r="2.42"/><circle cx="38.65" cy="170.86" r="2.42"/><circle cx="64.49" cy="121.82" r="2.42"/><circle cx="65.41" cy="96.9" r="2.42"/><circle cx="105.36" cy="100.88" r="2.42"/><circle cx="128.36" cy="85.54" r="2.42"/><circle cx="110.52" cy="64.6" r="2.42"/><circle cx="187.34" cy="62.18" r="2.42"/><circle cx="216.18" cy="108.76" r="2.42"/><circle cx="238.51" cy="99.58" r="2.42"/><circle cx="260.64" cy="154.9" r="2.42"/><circle cx="261.89" cy="200.85" r="2.42"/><circle cx="220.01" cy="219.1" r="2.42"/><circle cx="181.38" cy="218.32" r="2.42"/><circle cx="170.1" cy="82.91" r="2.42"/><circle cx="150" cy="56.03" r="2.42"/></svg>